# xmcd
#
# Track frame offsets: 
#        150
#        24712
#        48793
#        79860
#        108600
#        136528
#        178688
#        200504
#        226899
#        253640
#        291810
#
# Disc length: 4286 seconds
#
# Revision: 1
# Processed by: cddbd v1.5.2PL0 Copyright (c) Steve Scherf et al.
# Submitted via: ExactAudioCopy v0.99pb5
#
DISCID=9010bc0b
DTITLE=Various Artist - Selected Material - Sound In The Eighth Dimen
DTITLE=sion
DYEAR=1997
DGENRE=Techno
TTITLE0=Pimp Daddy Nash - Because Blonde Wore Red
TTITLE1=DJ Bmf - Sound In The Round
TTITLE2=Lickerish Quartet - Shelter
TTITLE3=Dubmarine - Feel The Sauce
TTITLE4=Dynagroove - Check It Out
TTITLE5=Q-Burns Abstract Message - Total Maza
TTITLE6=DJ Bmf Featuring Q-Burns Abstract Message - Illadin
TTITLE7=Joe Dropped The Swing
TTITLE8=Dubmarine - Lovin' Dub
TTITLE9=Q-Burns Abstract Message - Brainwormed
TTITLE10=Hidden - No Info Yet
EXTD=
EXTT0=
EXTT1=
EXTT2=
EXTT3=
EXTT4=
EXTT5=
EXTT6=
EXTT7=
EXTT8=
EXTT9=
EXTT10=
PLAYORDER=
